
Genre:Comedy | Music
Language:English
IMDb:http://www.imdb.com/title/tt1710396/
Source:HOKNOWS INC Thanks!
Encoder:Tony
 
Format                                   : AVI
Format/Info                              : Audio Video Interleave
File size                                : 998 MiB
Duration                                 : 1h 52mn
Overall bit rate                         : 1 239 Kbps

Video
ID                                       : 0
Format                                   : MPEG-4 Visual
Format profile                           : Advanced Simple@L5
Format settings, BVOP                    : 1
Format settings, QPel                    : No
Format settings, GMC                     : No warppoints
Format settings, Matrix                  : Default (H.263)
Codec ID                                 : XVID
Codec ID/Hint                            : XviD
Duration                                 : 1h 52mn
Bit rate                                 : 1 093 Kbps
Width                                    : 640 pixels
Height                                   : 296 pixels
Display aspect ratio                     : 2.2:1
Frame rate                               : 29.970 fps
Color space                              : YUV
Chroma subsampling                       : 4:2:0
Bit depth                                : 8 bits
Scan type                                : Progressive
Compression mode                         : Lossy
Bits/(Pixel*Frame)                       : 0.192
Stream size                              : 880 MiB (88%)
Writing library                          : XviD 1.2.1 (UTC 2008-12-04)

Audio
ID                                       : 1
Format                                   : AC-3
Format/Info                              : Audio Coding 3
Mode extension                           : CM (complete main)
Codec ID                                 : 2000
Duration                                 : 1h 20mn
Bit rate mode                            : Constant
Bit rate                                 : 192 Kbps
Channel(s)                               : 2 channels
Channel positions                        : Front: L R
Sampling rate                            : 48.0 KHz
Bit depth                                : 16 bits
Compression mode                         : Lossy
Stream size                              : 110 MiB (11%)
Alignment                                : Aligned on interleaves
Interleave, duration                     : 47 ms (1.40 video frame)
Interleave, preload duration             : 512 ms